General

Format                           : MPEG-4
Format profile                   : Base Media
Codec ID                         : isom
File size                        : 87.2 MiB
Duration                         : 4mn 38s
Overall bit rate                 : 2 629 Kbps
Encoded date                     : UTC 2012-02-28 23:46:43
Tagged date                      : UTC 2012-02-28 23:46:43

Video
ID                               : 1
Format                           : AVC
Format/Info                      : Advanced Video Codec
Format profile                   : High@L3.0
Format settings, CABAC           : Yes
Format settings, ReFrames        : 2 frames
Codec ID                         : avc1
Codec ID/Info                    : Advanced Video Coding
Duration                         : 4mn 38s
Bit rate mode                    : Variable
Bit rate                         : 2 550 Kbps
Maximum bit rate                 : 5 101 Kbps
Width                            : 720 pixels
Height                           : 480 pixels
Display aspect ratio             : 16:9
Original display aspect ratio    : 16:9
Frame rate mode                  : Constant
Frame rate                       : 23.976 fps
Standard                         : NTSC
Color space                      : YUV
Chroma subsampling               : 4:2:0
Bit depth                        : 8 bits
Scan type                        : Progressive
Bits/(Pixel*Frame)               : 0.308
Stream size                      : 84.7 MiB (97%)


Audio
ID                               : 2
Format                           : AAC
Format/Info                      : Advanced Audio Codec
Format profile                   : LC
Codec ID                         : 40
Duration                         : 4mn 38s
Bit rate mode                    : Variable
Bit rate                         : 68.4 Kbps
Maximum bit rate                 : 79.4 Kbps
Channel(s)                       : 2 channels
Channel positions                : Front: L R
Sampling rate                    : 44.1 KHz
Compression mode                 : Lossy
Stream size                      : 2.27 MiB (3%)


